<svg xmlns="http://www.w3.org/2000/svg" width="34" height="34" viewBox="0 0 34 34">
  <g id="Group_12388" data-name="Group 12388" transform="translate(-445.757 -18.319)">
    <path id="Path_10290" data-name="Path 10290" d="M462.757,18.319a17,17,0,1,0,17,17A17,17,0,0,0,462.757,18.319Zm-.414,26.238-2.867-1.239a.225.225,0,0,0-.21.017L456.3,45.219a.6.6,0,0,1-.676-.023l-1.845-1.353a.225.225,0,0,0-.229-.022l-2.116.988a.09.09,0,0,1-.092-.154l2.2-1.645a.225.225,0,0,1,.266,0l2.026,1.449a.225.225,0,0,0,.251.007l3.159-1.989a.225.225,0,0,1,.248.005l2.9,2A.045.045,0,0,1,462.343,44.557Zm11.46-.844-4.115-2.383a.225.225,0,0,0-.2-.014l-3.506,1.435a.045.045,0,0,1-.041-.08l3.32-2.111a.566.566,0,0,1,.642.024l4,2.979A.09.09,0,0,1,473.8,43.713Zm2.26-.343-6.21-4.792a.451.451,0,0,0-.519-.022l-6.342,4.07a.45.45,0,0,1-.465.013L459.6,40.985a.451.451,0,0,0-.472.017l-2.912,1.942a.45.45,0,0,1-.517-.012l-1.771-1.3a.45.45,0,0,0-.522-.008l-3.471,2.385a.4.4,0,0,0-.061.055l0,0-.02.019A15.6,15.6,0,1,1,476.1,43.4.462.462,0,0,0,476.063,43.37Z" transform="translate(0 0)" fill="#fff"/>
    <path id="Path_10291" data-name="Path 10291" d="M492.3,72.38a.784.784,0,0,1-.132-.28s-.006-.057-.052-.332a1.427,1.427,0,0,0-.183-.5,2.356,2.356,0,0,0-.762-.887,4.344,4.344,0,0,1,.069-.63s.034-.132-.16-.029a2.33,2.33,0,0,0-.7.372c-.155.006-1.042.012-1.042.012l0,.005a5.989,5.989,0,0,0-1.946.258c-1.362-.339-1.6-.2-1.717-.182a2.077,2.077,0,0,0-.936.511,1,1,0,0,1-.387.382,3.844,3.844,0,0,0-1.384.339c-.774.2-1.124.646-2.454,1.582s-1.254.511-2.228.851a3.361,3.361,0,0,1-2.174-.043,5.325,5.325,0,0,0-3.4-.372,8.627,8.627,0,0,0-2.584,1.087,3.154,3.154,0,0,1-1.835.135c-.915-.226-.925.334-.882.527.4.958,2.314.2,2.432.161a18.018,18.018,0,0,1,2.717-1.169,5.636,5.636,0,0,1,2.943.1c.551.177.729.412.708.442a11.237,11.237,0,0,0-2.075,3.66s.008.208-.74.439c-.812.251-.81.732-.81.732a6.276,6.276,0,0,0-.267.827,1.81,1.81,0,0,1-1.033,1.188s-.258.078-.319.181-.146.172-.129.3c.327,1.1,1.473.465,1.516.457s1.464-2.179,1.61-2.394a2.737,2.737,0,0,1,1.489-.792,4.061,4.061,0,0,0,1.12-.827s-.049-.079.4-.3a4.8,4.8,0,0,0,1.266-.844,2.059,2.059,0,0,1,1.619-1.111,15.9,15.9,0,0,0,4.349-.482,3.767,3.767,0,0,0,1.619-1.292c.146,1.507,2.463,1.223,2.592,1.257a4.563,4.563,0,0,1,1.834,1.369c.422.241.275.344.284.456-.138.508.344.8.431.982a.428.428,0,0,0,.663-.009,1.646,1.646,0,0,0,.345-.387,2.254,2.254,0,0,0-.086-.568,1.421,1.421,0,0,0-.534-1.085c-.2-.336-.517-.99-.655-1.154a1.026,1.026,0,0,0-.9-.784c-.069-.043-1.025-.741-1.025-.741-.181-.172.017-.275.017-.293a2.279,2.279,0,0,0,.121-.732s.064-.02.139-.037l.2-.02.012,0v0h0a1.726,1.726,0,0,0,.9.378c.183.074.813.235.813.235s.172.109.292.2a.774.774,0,0,0,.664.074c.149-.08.114-.149.12-.189.08-.069.132-.172.2-.246.22-.029.243-.086.306-.183.069-.126-.1-.384-.1-.384A2.553,2.553,0,0,0,492.3,72.38Zm-1.125-.689h0a.116.116,0,0,1-.08-.036.613.613,0,0,1-.207-.243.452.452,0,0,1,.274-.089h0s.037-.012.1.064l.006.006v0a1.122,1.122,0,0,1,.137.29l0,.008A.663.663,0,0,1,491.172,71.692Z" transform="translate(-17.989 -42.697)" fill="#fff"/>
  </g>
</svg>
