<svg id="Group_10638" data-name="Group 10638" xmlns="http://www.w3.org/2000/svg" width="24" height="24" viewBox="0 0 24 24">
  <path id="Path_9999" data-name="Path 9999" d="M243.952,469.661h24v24h-24Z" transform="translate(-243.952 -469.661)" fill="#161616" opacity="0"/>
  <path id="Path_10000" data-name="Path 10000" d="M255.95,491.659a2.005,2.005,0,0,0,2-2h-4A2,2,0,0,0,255.95,491.659Zm6-6v-5c0-3.07-1.639-5.639-4.5-6.319v-.68a1.5,1.5,0,1,0-3,0v.68c-2.869.68-4.5,3.24-4.5,6.319v5l-1.29,1.29a1,1,0,0,0,.7,1.71h13.166a1,1,0,0,0,.71-1.71Z" transform="translate(-243.95 -469.66)" fill="#161616"/>
</svg>
