<svg xmlns="http://www.w3.org/2000/svg" width="24" height="24" viewBox="0 0 24 24">
  <g id="Group_10936" data-name="Group 10936" transform="translate(-259.29 -356.108)">
    <rect id="Rectangle_877" data-name="Rectangle 877" width="24" height="24" transform="translate(259.29 356.108)" opacity="0"/>
    <path id="Path_710" data-name="Path 710" d="M269.2,375.205v-5.267h4.214v5.267a1.053,1.053,0,0,0,1.053,1.053h3.16a1.054,1.054,0,0,0,1.053-1.053v-7.374h1.791a.527.527,0,0,0,.348-.916l-8.807-7.932a1.062,1.062,0,0,0-1.412,0l-8.807,7.932a.527.527,0,0,0,.348.916h1.791v7.374a1.053,1.053,0,0,0,1.053,1.053h3.16A1.054,1.054,0,0,0,269.2,375.205Z" transform="translate(0.15 0.114)"/>
  </g>
</svg>
