<svg xmlns="http://www.w3.org/2000/svg" width="24" height="24" viewBox="0 0 24 24">
  <g id="Group_11509" data-name="Group 11509" transform="translate(-427.993 -443.054)">
    <path id="Path_10206" data-name="Path 10206" d="M427.993,443.054h24v24h-24Z" opacity="0"/>
    <path id="Path_10207" data-name="Path 10207" d="M433.993,462.054a2.006,2.006,0,0,0,2,2h8a2.006,2.006,0,0,0,2-2v-10a2.006,2.006,0,0,0-2-2h-8a2.006,2.006,0,0,0-2,2Zm12-15h-2.5l-.71-.71a1.009,1.009,0,0,0-.7-.29H437.9a1.009,1.009,0,0,0-.7.29l-.71.71h-2.5a1,1,0,1,0,0,2h12a1,1,0,1,0,0-2Z" transform="translate(0 0)"/>
  </g>
</svg>
